<svg xmlns="http://www.w3.org/2000/svg" xmlns:xlink="http://www.w3.org/1999/xlink" width="202" zoomAndPan="magnify" viewBox="0 0 151.5 45.749998" height="61" preserveAspectRatio="xMidYMid meet" version="1.0"><defs><g/><clipPath id="fec2527c70"><path d="M 10.390625 4.34375 L 27 4.34375 L 27 26 L 10.390625 26 Z M 10.390625 4.34375 " clip-rule="nonzero"/></clipPath><clipPath id="4cf743518a"><path d="M 124 21 L 140.566406 21 L 140.566406 41.324219 L 124 41.324219 Z M 124 21 " clip-rule="nonzero"/></clipPath></defs><g clip-path="url(#fec2527c70)"><path fill="#000000" d="M -16.964844 25.6875 L -18.8125 25.6875 L -18.8125 -19.160156 L 26.035156 -19.160156 L 26.035156 -17.308594 L -16.964844 -17.308594 Z M -16.964844 25.6875 " fill-opacity="1" fill-rule="nonzero"/></g><g clip-path="url(#4cf743518a)"><path fill="#000000" d="M 169.367188 66.375 L 124.519531 66.375 L 124.519531 64.527344 L 167.519531 64.527344 L 167.519531 21.527344 L 169.367188 21.527344 Z M 169.367188 66.375 " fill-opacity="1" fill-rule="nonzero"/></g><g fill="#000000" fill-opacity="1"><g transform="translate(14.53656, 24.836606)"><g><path d="M 2.6875 -15.6875 L 2.6875 0 L 12.828125 0 L 12.828125 -1.234375 L 4.734375 -1.234375 L 4.734375 -7.796875 L 11.6875 -7.796875 L 11.6875 -8.828125 L 4.734375 -8.828125 L 4.734375 -14.46875 L 12.828125 -14.46875 L 12.828125 -15.6875 Z M 2.6875 -15.6875 "/></g></g></g><g fill="#000000" fill-opacity="1"><g transform="translate(30.538079, 24.836606)"><g><path d="M 15.34375 -15.6875 L 15.34375 -3.703125 L 15.25 -3.703125 L 2.796875 -15.96875 L 2.6875 -15.96875 L 2.6875 0 L 3.71875 0 L 3.71875 -12 L 3.8125 -12 L 16.25 0.265625 L 16.375 0.265625 L 16.375 -15.6875 Z M 15.34375 -15.6875 "/></g></g></g><g fill="#000000" fill-opacity="1"><g transform="translate(52.096956, 24.836606)"><g><path d="M 16.96875 -7 L 12.53125 -7 L 12.53125 -6.078125 L 15.046875 -6.078125 L 15.046875 -2.015625 C 14.367188 -1.585938 13.675781 -1.265625 12.96875 -1.046875 C 12.269531 -0.835938 11.472656 -0.734375 10.578125 -0.734375 C 9.398438 -0.734375 8.367188 -0.910156 7.484375 -1.265625 C 6.609375 -1.628906 5.878906 -2.128906 5.296875 -2.765625 C 4.710938 -3.398438 4.273438 -4.15625 3.984375 -5.03125 C 3.691406 -5.90625 3.546875 -6.867188 3.546875 -7.921875 C 3.546875 -8.953125 3.679688 -9.898438 3.953125 -10.765625 C 4.234375 -11.628906 4.648438 -12.375 5.203125 -13 C 5.753906 -13.632812 6.429688 -14.125 7.234375 -14.46875 C 8.035156 -14.8125 8.960938 -14.984375 10.015625 -14.984375 C 10.722656 -14.984375 11.382812 -14.90625 12 -14.75 C 12.613281 -14.601562 13.15625 -14.410156 13.625 -14.171875 C 14.101562 -13.929688 14.492188 -13.65625 14.796875 -13.34375 C 15.109375 -13.039062 15.3125 -12.734375 15.40625 -12.421875 L 17.015625 -12.421875 C 16.878906 -12.753906 16.648438 -13.125 16.328125 -13.53125 C 16.015625 -13.9375 15.578125 -14.316406 15.015625 -14.671875 C 14.460938 -15.035156 13.78125 -15.34375 12.96875 -15.59375 C 12.15625 -15.84375 11.195312 -15.96875 10.09375 -15.96875 C 8.820312 -15.96875 7.648438 -15.785156 6.578125 -15.421875 C 5.515625 -15.066406 4.59375 -14.550781 3.8125 -13.875 C 3.03125 -13.207031 2.421875 -12.382812 1.984375 -11.40625 C 1.554688 -10.425781 1.34375 -9.316406 1.34375 -8.078125 C 1.34375 -7.015625 1.507812 -5.984375 1.84375 -4.984375 C 2.1875 -3.992188 2.703125 -3.101562 3.390625 -2.3125 C 4.085938 -1.53125 4.972656 -0.90625 6.046875 -0.4375 C 7.128906 0.03125 8.414062 0.265625 9.90625 0.265625 C 11.03125 0.265625 12.023438 0.144531 12.890625 -0.09375 C 13.753906 -0.34375 14.472656 -0.617188 15.046875 -0.921875 L 15.046875 0 L 16.96875 0 Z M 16.96875 -7 "/></g></g></g><g fill="#000000" fill-opacity="1"><g transform="translate(72.91634, 24.836606)"><g><path d="M 2.6875 0 L 2.6875 -15.6875 L 4.734375 -15.6875 L 4.734375 -1.234375 L 12.828125 -1.234375 L 12.828125 0 Z M 2.6875 0 "/></g></g></g><g fill="#000000" fill-opacity="1"><g transform="translate(88.917861, 24.836606)"><g><path d="M 3.59375 -15.6875 L 3.59375 0 L 5.625 0 L 5.625 -15.6875 Z M 3.59375 -15.6875 "/></g></g></g><g fill="#000000" fill-opacity="1"><g transform="translate(100.639316, 24.836606)"><g><path d="M 0.828125 -3.96875 C 0.859375 -3.320312 1.023438 -2.738281 1.328125 -2.21875 C 1.640625 -1.695312 2.0625 -1.253906 2.59375 -0.890625 C 3.125 -0.523438 3.742188 -0.238281 4.453125 -0.03125 C 5.171875 0.164062 5.957031 0.265625 6.8125 0.265625 C 7.675781 0.265625 8.457031 0.160156 9.15625 -0.046875 C 9.851562 -0.253906 10.445312 -0.550781 10.9375 -0.9375 C 11.4375 -1.332031 11.816406 -1.804688 12.078125 -2.359375 C 12.347656 -2.910156 12.484375 -3.519531 12.484375 -4.1875 C 12.484375 -5.113281 12.25 -5.875 11.78125 -6.46875 C 11.320312 -7.0625 10.742188 -7.554688 10.046875 -7.953125 C 9.359375 -8.347656 8.601562 -8.675781 7.78125 -8.9375 C 6.96875 -9.207031 6.210938 -9.492188 5.515625 -9.796875 C 4.828125 -10.097656 4.25 -10.441406 3.78125 -10.828125 C 3.320312 -11.210938 3.09375 -11.726562 3.09375 -12.375 C 3.09375 -12.738281 3.171875 -13.078125 3.328125 -13.390625 C 3.484375 -13.703125 3.710938 -13.972656 4.015625 -14.203125 C 4.328125 -14.429688 4.707031 -14.617188 5.15625 -14.765625 C 5.601562 -14.910156 6.117188 -14.984375 6.703125 -14.984375 C 7.671875 -14.984375 8.492188 -14.773438 9.171875 -14.359375 C 9.859375 -13.953125 10.257812 -13.304688 10.375 -12.421875 L 11.90625 -12.421875 C 11.8125 -12.972656 11.609375 -13.46875 11.296875 -13.90625 C 10.984375 -14.351562 10.585938 -14.726562 10.109375 -15.03125 C 9.628906 -15.34375 9.085938 -15.578125 8.484375 -15.734375 C 7.878906 -15.890625 7.25 -15.96875 6.59375 -15.96875 C 5.90625 -15.96875 5.25 -15.875 4.625 -15.6875 C 4.007812 -15.507812 3.460938 -15.25 2.984375 -14.90625 C 2.515625 -14.5625 2.140625 -14.128906 1.859375 -13.609375 C 1.585938 -13.085938 1.453125 -12.488281 1.453125 -11.8125 C 1.453125 -10.9375 1.675781 -10.226562 2.125 -9.6875 C 2.570312 -9.144531 3.132812 -8.691406 3.8125 -8.328125 C 4.5 -7.972656 5.238281 -7.671875 6.03125 -7.421875 C 6.820312 -7.171875 7.554688 -6.882812 8.234375 -6.5625 C 8.921875 -6.238281 9.488281 -5.84375 9.9375 -5.375 C 10.382812 -4.914062 10.609375 -4.296875 10.609375 -3.515625 C 10.609375 -2.546875 10.25 -1.835938 9.53125 -1.390625 C 8.820312 -0.941406 7.878906 -0.71875 6.703125 -0.71875 C 5.765625 -0.71875 5.007812 -0.835938 4.4375 -1.078125 C 3.875 -1.328125 3.441406 -1.625 3.140625 -1.96875 C 2.835938 -2.3125 2.632812 -2.664062 2.53125 -3.03125 C 2.425781 -3.40625 2.367188 -3.71875 2.359375 -3.96875 Z M 0.828125 -3.96875 "/></g></g></g><g fill="#000000" fill-opacity="1"><g transform="translate(117.156229, 24.836606)"><g><path d="M 4.734375 -7.796875 L 14.125 -7.796875 L 14.125 0 L 16.171875 0 L 16.171875 -15.6875 L 14.125 -15.6875 L 14.125 -8.828125 L 4.734375 -8.828125 L 4.734375 -15.6875 L 2.6875 -15.6875 L 2.6875 0 L 4.734375 0 Z M 4.734375 -7.796875 "/></g></g></g><g fill="#000000" fill-opacity="1"><g transform="translate(64.890052, 40.241123)"><g><path d="M 1.8125 0.078125 C 2.066406 0.078125 2.304688 0.0273438 2.414062 -0.0195312 L 2.414062 -0.683594 C 2.292969 -0.621094 2.117188 -0.5625 1.957031 -0.5625 C 1.695312 -0.5625 1.496094 -0.71875 1.496094 -1.117188 L 1.496094 -3.226562 L 2.46875 -3.226562 L 2.46875 -3.847656 L 1.496094 -3.847656 L 1.496094 -5.359375 L 0.761719 -4.757812 L 0.761719 -3.847656 L 0.136719 -3.847656 L 0.136719 -3.226562 L 0.753906 -3.226562 L 0.753906 -1.039062 C 0.753906 -0.363281 1.097656 0.078125 1.8125 0.078125 Z M 1.8125 0.078125 "/></g></g></g><g fill="#000000" fill-opacity="1"><g transform="translate(68.496271, 40.241123)"><g><path d="M 1.859375 0.0820312 C 2.394531 0.0820312 2.824219 -0.210938 3.035156 -0.558594 L 3.035156 0 L 3.785156 0 L 3.785156 -3.847656 L 3.035156 -3.847656 L 3.035156 -1.902344 C 3.035156 -0.980469 2.542969 -0.574219 2.007812 -0.574219 C 1.390625 -0.574219 1.25 -1.085938 1.25 -1.675781 L 1.25 -3.847656 L 0.496094 -3.847656 L 0.496094 -1.710938 C 0.496094 -0.660156 0.902344 0.0820312 1.859375 0.0820312 Z M 1.859375 0.0820312 "/></g></g></g><g fill="#000000" fill-opacity="1"><g transform="translate(73.754846, 40.241123)"><g><path d="M 1.8125 0.078125 C 2.066406 0.078125 2.304688 0.0273438 2.414062 -0.0195312 L 2.414062 -0.683594 C 2.292969 -0.621094 2.117188 -0.5625 1.957031 -0.5625 C 1.695312 -0.5625 1.496094 -0.71875 1.496094 -1.117188 L 1.496094 -3.226562 L 2.46875 -3.226562 L 2.46875 -3.847656 L 1.496094 -3.847656 L 1.496094 -5.359375 L 0.761719 -4.757812 L 0.761719 -3.847656 L 0.136719 -3.847656 L 0.136719 -3.226562 L 0.753906 -3.226562 L 0.753906 -1.039062 C 0.753906 -0.363281 1.097656 0.078125 1.8125 0.078125 Z M 1.8125 0.078125 "/></g></g></g><g fill="#000000" fill-opacity="1"><g transform="translate(77.361065, 40.241123)"><g><path d="M 2.15625 0.078125 C 3.289062 0.078125 4.054688 -0.839844 4.054688 -1.933594 C 4.054688 -3.023438 3.289062 -3.929688 2.15625 -3.929688 C 1.019531 -3.929688 0.265625 -3.023438 0.265625 -1.933594 C 0.265625 -0.839844 1.019531 0.078125 2.15625 0.078125 Z M 2.160156 -0.554688 C 1.375 -0.554688 1.035156 -1.226562 1.035156 -1.933594 C 1.035156 -2.636719 1.375 -3.292969 2.160156 -3.292969 C 2.949219 -3.292969 3.285156 -2.636719 3.285156 -1.933594 C 3.285156 -1.234375 2.949219 -0.554688 2.160156 -0.554688 Z M 2.160156 -0.554688 "/></g></g></g><g fill="#000000" fill-opacity="1"><g transform="translate(82.554162, 40.241123)"><g><path d="M 0.609375 0 L 1.332031 0 L 1.332031 -1.785156 C 1.332031 -2.734375 1.757812 -3.207031 2.3125 -3.207031 C 2.480469 -3.207031 2.628906 -3.164062 2.757812 -3.066406 L 3.085938 -3.695312 C 2.921875 -3.839844 2.6875 -3.929688 2.425781 -3.929688 C 1.96875 -3.929688 1.523438 -3.652344 1.339844 -3.179688 L 1.339844 -3.847656 L 0.609375 -3.847656 Z M 0.609375 0 "/></g></g></g><path stroke-linecap="round" transform="matrix(0.739639, 0, 0, 0.739639, 13.429754, 37.168861)" fill="none" stroke-linejoin="miter" d="M 0.998074 1.002239 L 41.843607 1.002239 " stroke="#000000" stroke-width="2" stroke-opacity="1" stroke-miterlimit="4"/><path stroke-linecap="round" transform="matrix(0.739639, 0, 0, 0.739639, 107.254315, 37.168861)" fill="none" stroke-linejoin="miter" d="M 0.997612 1.002239 L 38.790557 1.002239 " stroke="#000000" stroke-width="2" stroke-opacity="1" stroke-miterlimit="4"/></svg>